# xmcd CD database file generated by OrangeCD 5.2
#
# Track frame offsets:
#	225
#	17676
#	29279
#	44845
#	58996
#	74293
#	99552
#	111625
#	126878
#	140341
#
# Disc length: 2105 seconds
#
# Revision: 1
# Processed by: cddbd v1.5.1PL0 Copyright (c) Steve Scherf et al.
# Submitted via: OrangeCD 5.2
#
DISCID=9908360a
DTITLE=Scooter Lee - Set The North Pole On Fire
DYEAR=2002
DGENRE=country
TTITLE0=Hollidays In The Bayou
TTITLE1=Scooter Lee and Mike Dyche - Christmas In Each Others Arms
TTITLE2=Spending Christmas By Myself
TTITLE3=Ain't Nobody Got The Blues
TTITLE4=Traditional Christmas Medley
TTITLE5=Mary's Boy Child
TTITLE6=Sexy Little Christmas Thang
TTITLE7=The Christmas Song (Chestnuts Roasting On An Open Fire)
TTITLE8=Set The North Pole On Fire
TTITLE9=A Christmas Carol
EXTD=
EXTT0=
EXTT1=
EXTT2=
EXTT3=
EXTT4=
EXTT5=
EXTT6=
EXTT7=
EXTT8=
EXTT9=
PLAYORDER=
